<svg xmlns="http://www.w3.org/2000/svg" xmlns:xlink="http://www.w3.org/1999/xlink" width="500" zoomAndPan="magnify" viewBox="0 0 375 374.999991" height="500" preserveAspectRatio="xMidYMid meet" version="1.0"><defs><clipPath id="d841ea7b19"><path d="M 48.46875 128.332031 L 146.714844 128.332031 L 146.714844 206.332031 L 48.46875 206.332031 Z M 48.46875 128.332031 " clip-rule="nonzero"/></clipPath><clipPath id="eef8fa14d5"><path d="M 115.417969 151.699219 L 159.667969 151.699219 L 159.667969 204 L 115.417969 204 Z M 115.417969 151.699219 " clip-rule="nonzero"/></clipPath><clipPath id="74c25624e4"><path d="M 163.664062 151.699219 L 210.914062 151.699219 L 210.914062 206.449219 L 163.664062 206.449219 Z M 163.664062 151.699219 " clip-rule="nonzero"/></clipPath><clipPath id="f8fa40d02f"><path d="M 207.636719 151.699219 L 254 151.699219 L 254 206.449219 L 207.636719 206.449219 Z M 207.636719 151.699219 " clip-rule="nonzero"/></clipPath><clipPath id="91ddfa77e8"><path d="M 138 118 L 224.324219 118 L 224.324219 242.589844 L 138 242.589844 Z M 138 118 " clip-rule="nonzero"/></clipPath><clipPath id="93c7d56a7b"><path d="M 85.574219 91.839844 L 172 91.839844 L 172 216 L 85.574219 216 Z M 85.574219 91.839844 " clip-rule="nonzero"/></clipPath><clipPath id="31c49736d7"><path d="M 274 127 L 345.457031 127 L 345.457031 229.429688 L 274 229.429688 Z M 274 127 " clip-rule="nonzero"/></clipPath><clipPath id="cbb15a6699"><path d="M 230.707031 105 L 302 105 L 302 208 L 230.707031 208 Z M 230.707031 105 " clip-rule="nonzero"/></clipPath></defs><rect x="-37.5" width="450" fill="#ffffff" y="-37.499999" height="449.999989" fill-opacity="1"/><rect x="-37.5" width="450" fill="#000000" y="-37.499999" height="449.999989" fill-opacity="1"/><g clip-path="url(#d841ea7b19)"><path fill="#ffffff" d="M 93.496094 171.859375 C 93.933594 171.863281 94.371094 171.816406 94.796875 171.722656 C 96.917969 171.269531 104.316406 169.726562 107.511719 167.101562 L 121.574219 155.558594 L 86.871094 155.558594 L 90.644531 146.703125 L 84.570312 144.636719 L 101.375 144.636719 C 117.992188 144.636719 134.09375 138.871094 146.9375 128.332031 L 66.140625 128.332031 L 79.75 132.453125 L 48.46875 206.367188 L 74.574219 184.945312 L 79.050781 173.996094 L 72.507812 171.773438 L 93.496094 171.859375 " fill-opacity="1" fill-rule="nonzero"/></g><g clip-path="url(#eef8fa14d5)"><path fill="#ffffff" d="M 115.417969 203.988281 L 115.417969 171.144531 L 137.675781 171.144531 L 146.617188 184.546875 L 128.824219 184.546875 L 128.824219 190.585938 L 150.625 190.585938 L 159.5625 203.988281 Z M 129.234375 165.128906 L 120.316406 151.726562 L 150.640625 151.726562 L 159.558594 165.128906 Z M 129.234375 165.128906 " fill-opacity="1" fill-rule="nonzero"/></g><g clip-path="url(#74c25624e4)"><path fill="#ffffff" d="M 180.820312 206.355469 C 171.363281 206.347656 163.664062 198.644531 163.664062 189.1875 L 163.664062 188.226562 L 177.679688 188.226562 L 177.679688 189.25 C 177.707031 190.953125 179.101562 192.328125 180.808594 192.328125 L 191.8125 192.328125 C 193.523438 192.328125 194.914062 190.789062 194.9375 189.085938 L 194.9375 189.027344 C 194.933594 187.3125 193.53125 185.753906 191.8125 185.753906 L 191.710938 185.753906 L 180.820312 185.742188 C 171.363281 185.734375 163.664062 178.351562 163.664062 168.894531 L 163.664062 167.773438 L 177.679688 167.773438 L 177.679688 168.957031 C 177.707031 170.65625 179.101562 172.035156 180.808594 172.035156 L 191.4375 172.035156 L 191.804688 172.023438 C 201.257812 172.035156 208.953125 179.574219 208.957031 189.027344 C 208.957031 193.621094 207.171875 198.09375 203.925781 201.335938 C 200.683594 204.582031 196.371094 206.367188 191.785156 206.367188 C 191.78125 206.367188 180.820312 206.355469 180.820312 206.355469 Z M 178.117188 165.730469 L 168.679688 151.714844 L 201.292969 151.714844 L 210.621094 165.730469 Z M 178.117188 165.730469 " fill-opacity="1" fill-rule="nonzero"/></g><g clip-path="url(#f8fa40d02f)"><path fill="#ffffff" d="M 224.542969 206.367188 L 224.542969 172.035156 L 238.5625 172.035156 L 238.5625 206.367188 Z M 217.078125 165.734375 L 207.640625 151.714844 L 253.777344 151.714844 L 253.777344 165.734375 Z M 217.078125 165.734375 " fill-opacity="1" fill-rule="nonzero"/></g><g clip-path="url(#91ddfa77e8)"><path fill="#000000" d="M 224.246094 242.003906 C 220.257812 235.65625 216.265625 229.308594 212.265625 222.960938 L 206.269531 213.464844 L 200.246094 203.964844 L 188.1875 184.976562 L 176.871094 167.1875 L 191.441406 145.832031 L 195.273438 140.21875 C 196.558594 138.347656 197.832031 136.476562 199.125 134.613281 L 206.875 123.4375 L 210.007812 118.917969 L 168.683594 118.640625 L 167.8125 120.195312 C 166.539062 122.46875 165.296875 124.757812 164.039062 127.042969 L 163.097656 128.761719 L 162.171875 130.484375 L 160.308594 133.921875 L 156.625 140.824219 L 154.75 144.382812 C 154.03125 143.300781 153.316406 142.214844 152.597656 141.132812 L 150.402344 137.855469 L 148.183594 134.585938 L 145.964844 131.324219 L 143.714844 128.074219 C 142.210938 125.910156 140.679688 123.761719 139.128906 121.628906 C 139.082031 121.550781 139.019531 121.503906 138.933594 121.480469 C 138.847656 121.457031 138.765625 121.46875 138.6875 121.515625 C 138.613281 121.558594 138.5625 121.625 138.539062 121.710938 C 138.519531 121.792969 138.53125 121.875 138.574219 121.953125 C 139.699219 124.332031 140.859375 126.699219 142.046875 129.054688 L 143.824219 132.582031 L 145.625 136.097656 L 147.441406 139.601562 L 149.277344 143.09375 C 150.511719 145.417969 151.742188 147.742188 152.992188 150.058594 L 154.796875 153.394531 L 156.949219 150.03125 C 158.351562 147.828125 159.722656 145.617188 161.109375 143.40625 L 165.230469 136.761719 L 167.273438 133.425781 L 168.292969 131.765625 L 169.304688 130.105469 C 170.328125 128.414062 171.355469 126.726562 172.371094 125.03125 C 173.179688 125.03125 197.882812 124.9375 198.867188 124.917969 L 194.621094 131.648438 C 193.414062 133.566406 192.183594 135.46875 190.96875 137.378906 L 187.300781 143.105469 L 172.621094 165.996094 L 171.855469 167.1875 L 172.621094 168.296875 L 185.347656 186.84375 L 198.105469 205.371094 L 204.484375 214.632812 L 210.886719 223.882812 C 215.148438 230.058594 219.429688 236.21875 223.722656 242.363281 C 223.769531 242.433594 223.835938 242.480469 223.921875 242.496094 C 224.007812 242.511719 224.085938 242.496094 224.15625 242.449219 C 224.230469 242.402344 224.273438 242.335938 224.292969 242.25 C 224.308594 242.164062 224.292969 242.085938 224.246094 242.015625 Z M 224.246094 242.003906 " fill-opacity="1" fill-rule="nonzero"/></g><g clip-path="url(#93c7d56a7b)"><path fill="#000000" d="M 167.878906 205.242188 L 166.097656 201.710938 L 164.300781 198.199219 L 162.480469 194.695312 L 160.648438 191.199219 C 159.414062 188.875 158.183594 186.550781 156.929688 184.238281 L 155.125 180.898438 L 152.976562 184.265625 C 151.574219 186.464844 150.203125 188.679688 148.816406 190.886719 L 144.691406 197.53125 L 142.652344 200.867188 L 141.628906 202.527344 L 140.617188 204.191406 C 139.59375 205.882812 138.578125 207.574219 137.566406 209.265625 C 136.757812 209.265625 112.050781 209.363281 111.066406 209.378906 L 115.304688 202.652344 C 116.511719 200.730469 117.742188 198.828125 118.957031 196.917969 L 122.625 191.191406 L 137.308594 168.296875 L 138.070312 167.109375 L 137.308594 166 L 124.578125 147.492188 L 111.820312 129 L 105.441406 119.761719 L 99.035156 110.53125 C 94.773438 104.375 90.496094 98.226562 86.203125 92.09375 C 86.15625 92.023438 86.089844 91.980469 86.007812 91.964844 C 85.925781 91.945312 85.847656 91.960938 85.773438 92.003906 C 85.703125 92.050781 85.65625 92.117188 85.636719 92.199219 C 85.617188 92.285156 85.628906 92.363281 85.675781 92.4375 C 89.667969 98.777344 93.664062 105.109375 97.65625 111.441406 L 103.65625 120.933594 L 109.675781 130.414062 L 121.734375 149.363281 L 133.050781 167.109375 L 118.492188 188.464844 L 114.65625 194.078125 C 113.371094 195.945312 112.101562 197.824219 110.808594 199.6875 L 103.058594 210.863281 L 99.925781 215.378906 L 141.25 215.65625 L 142.125 214.089844 C 143.398438 211.8125 144.644531 209.523438 145.898438 207.242188 L 146.839844 205.523438 L 147.769531 203.804688 L 149.632812 200.367188 L 153.296875 193.472656 L 155.175781 189.917969 L 157.324219 193.160156 L 159.519531 196.441406 L 161.738281 199.714844 L 163.957031 202.976562 L 166.207031 206.222656 C 167.710938 208.386719 169.242188 210.535156 170.792969 212.667969 C 170.90625 212.820312 171.046875 212.847656 171.210938 212.75 C 171.375 212.652344 171.417969 212.519531 171.335938 212.347656 C 170.21875 209.96875 169.066406 207.601562 167.878906 205.242188 Z M 167.878906 205.242188 " fill-opacity="1" fill-rule="nonzero"/></g><g clip-path="url(#31c49736d7)"><path fill="#ffffff" d="M 345.347656 229.289062 C 342.046875 224.035156 338.746094 218.777344 335.441406 213.523438 L 330.484375 205.65625 L 325.503906 197.785156 L 315.535156 182.0625 L 306.179688 167.332031 L 318.222656 149.644531 L 321.394531 144.996094 C 322.457031 143.449219 323.507812 141.894531 324.578125 140.351562 L 330.984375 131.097656 L 333.574219 127.355469 L 299.414062 127.125 L 298.691406 128.414062 C 297.640625 130.296875 296.609375 132.191406 295.570312 134.085938 L 294.796875 135.507812 L 294.027344 136.933594 L 292.488281 139.78125 L 289.445312 145.496094 L 287.890625 148.445312 C 287.300781 147.546875 286.707031 146.648438 286.113281 145.753906 L 284.300781 143.039062 L 282.464844 140.328125 L 280.628906 137.628906 L 278.769531 134.941406 C 277.527344 133.148438 276.261719 131.367188 274.980469 129.601562 C 274.941406 129.535156 274.886719 129.496094 274.816406 129.476562 C 274.746094 129.457031 274.679688 129.46875 274.617188 129.503906 C 274.554688 129.542969 274.511719 129.597656 274.492188 129.667969 C 274.476562 129.738281 274.484375 129.804688 274.519531 129.867188 C 275.453125 131.839844 276.410156 133.800781 277.390625 135.75 L 278.859375 138.671875 L 280.351562 141.582031 L 281.851562 144.484375 L 283.367188 147.378906 C 284.386719 149.300781 285.40625 151.226562 286.441406 153.144531 L 287.933594 155.910156 L 289.710938 153.121094 C 290.871094 151.296875 292.003906 149.464844 293.148438 147.636719 L 296.554688 142.132812 L 298.246094 139.371094 L 299.089844 137.996094 L 299.925781 136.621094 C 300.773438 135.21875 301.621094 133.820312 302.460938 132.417969 C 303.128906 132.417969 323.550781 132.339844 324.363281 132.324219 L 320.855469 137.898438 C 319.855469 139.484375 318.839844 141.0625 317.835938 142.644531 L 314.804688 147.386719 L 302.664062 166.34375 L 302.03125 167.332031 L 302.664062 168.246094 L 313.1875 183.609375 L 323.734375 198.953125 L 329.007812 206.621094 L 334.300781 214.28125 C 337.824219 219.398438 341.363281 224.5 344.910156 229.589844 C 344.949219 229.648438 345.007812 229.683594 345.078125 229.699219 C 345.148438 229.710938 345.210938 229.699219 345.269531 229.660156 C 345.332031 229.621094 345.367188 229.566406 345.382812 229.496094 C 345.398438 229.425781 345.386719 229.359375 345.347656 229.300781 Z M 345.347656 229.289062 " fill-opacity="1" fill-rule="nonzero"/></g><g clip-path="url(#cbb15a6699)"><path fill="#ffffff" d="M 298.746094 198.847656 L 297.277344 195.921875 L 295.789062 193.011719 L 294.285156 190.109375 L 292.769531 187.21875 C 291.746094 185.292969 290.730469 183.367188 289.695312 181.453125 L 288.203125 178.683594 L 286.425781 181.472656 C 285.265625 183.292969 284.132812 185.128906 282.988281 186.957031 L 279.578125 192.460938 L 277.890625 195.222656 L 277.046875 196.597656 L 276.210938 197.976562 C 275.367188 199.375 274.523438 200.777344 273.6875 202.175781 C 273.019531 202.175781 252.597656 202.257812 251.78125 202.273438 L 255.28125 196.699219 C 256.28125 195.113281 257.296875 193.535156 258.304688 191.953125 L 261.335938 187.207031 L 273.472656 168.25 L 274.101562 167.265625 L 273.472656 166.347656 L 262.949219 151.019531 L 247.128906 128.050781 L 241.832031 120.410156 C 238.3125 115.308594 234.777344 110.21875 231.226562 105.140625 C 231.132812 105.003906 231.011719 104.976562 230.871094 105.066406 C 230.8125 105.105469 230.773438 105.160156 230.757812 105.230469 C 230.742188 105.300781 230.753906 105.363281 230.789062 105.425781 C 234.089844 110.675781 237.394531 115.921875 240.695312 121.164062 L 245.652344 129.023438 L 250.632812 136.875 L 260.597656 152.570312 L 269.957031 167.265625 L 257.917969 184.953125 L 254.75 189.601562 C 253.6875 191.148438 252.636719 192.703125 251.566406 194.246094 L 245.160156 203.5 L 242.570312 207.242188 L 276.734375 207.472656 L 277.457031 206.171875 C 278.507812 204.289062 279.539062 202.394531 280.574219 200.5 L 281.351562 199.078125 L 282.125 197.65625 L 283.664062 194.808594 L 286.691406 189.101562 L 288.246094 186.152344 L 290.023438 188.839844 L 291.835938 191.558594 L 293.671875 194.269531 L 295.503906 196.96875 L 297.363281 199.65625 C 298.609375 201.449219 299.875 203.226562 301.15625 204.996094 C 301.25 205.121094 301.367188 205.144531 301.5 205.066406 C 301.636719 204.984375 301.671875 204.871094 301.605469 204.730469 C 300.679688 202.761719 299.726562 200.800781 298.746094 198.847656 Z M 298.746094 198.847656 " fill-opacity="1" fill-rule="nonzero"/></g></svg>