<svg xmlns="http://www.w3.org/2000/svg" xmlns:xlink="http://www.w3.org/1999/xlink" width="500" zoomAndPan="magnify" viewBox="0 0 375 374.999991" height="500" preserveAspectRatio="xMidYMid meet" version="1.0"><defs><clipPath id="d3e96a2489"><path d="M 93.148438 123.238281 L 223.480469 123.238281 L 223.480469 226.527344 L 93.148438 226.527344 Z M 93.148438 123.238281 " clip-rule="nonzero"/></clipPath><clipPath id="f5e8f2fb0e"><path d="M 210 135 L 279.378906 135 L 279.378906 235.59375 L 210 235.59375 Z M 210 135 " clip-rule="nonzero"/></clipPath><clipPath id="99862249f9"><path d="M 167.628906 114.09375 L 237 114.09375 L 237 214 L 167.628906 214 Z M 167.628906 114.09375 " clip-rule="nonzero"/></clipPath></defs><rect x="-37.5" width="450" fill="#ffffff" y="-37.499999" height="449.999989" fill-opacity="1"/><rect x="-37.5" width="450" fill="#000000" y="-37.499999" height="449.999989" fill-opacity="1"/><g clip-path="url(#d3e96a2489)"><path fill="#ffffff" d="M 152.75 180.855469 C 153.328125 180.855469 153.902344 180.796875 154.46875 180.671875 C 157.277344 180.070312 167.066406 178.027344 171.296875 174.558594 L 189.910156 159.277344 L 143.976562 159.277344 L 148.972656 147.554688 L 140.929688 144.820312 L 163.175781 144.820312 C 185.167969 144.820312 206.480469 137.191406 223.484375 123.238281 L 116.542969 123.238281 L 134.554688 128.699219 L 93.148438 226.527344 L 127.699219 198.171875 L 133.625 183.683594 L 124.96875 180.738281 L 152.75 180.855469 " fill-opacity="1" fill-rule="nonzero"/></g><g clip-path="url(#f5e8f2fb0e)"><path fill="#ffffff" d="M 279.285156 235.214844 C 276.070312 230.09375 272.855469 224.976562 269.636719 219.855469 L 264.808594 212.195312 L 259.960938 204.53125 L 250.25 189.214844 L 241.136719 174.867188 L 252.867188 157.644531 L 255.957031 153.113281 C 256.988281 151.605469 258.015625 150.09375 259.054688 148.59375 L 265.292969 139.578125 L 267.816406 135.933594 L 234.546875 135.710938 L 233.84375 136.964844 C 232.820312 138.800781 231.816406 140.644531 230.804688 142.488281 L 230.050781 143.871094 L 229.304688 145.261719 L 227.804688 148.035156 L 224.835938 153.601562 L 223.324219 156.476562 C 222.75 155.601562 222.171875 154.726562 221.59375 153.851562 L 219.828125 151.207031 L 218.039062 148.570312 L 216.253906 145.941406 L 214.441406 143.320312 C 213.230469 141.574219 212 139.839844 210.75 138.121094 C 210.714844 138.058594 210.660156 138.019531 210.59375 138 C 210.523438 137.984375 210.457031 137.992188 210.394531 138.027344 C 210.335938 138.0625 210.292969 138.117188 210.277344 138.183594 C 210.257812 138.253906 210.265625 138.320312 210.304688 138.382812 C 211.210938 140.300781 212.140625 142.210938 213.097656 144.109375 L 214.53125 146.953125 L 215.980469 149.789062 L 217.445312 152.617188 L 218.921875 155.433594 C 219.914062 157.308594 220.90625 159.183594 221.914062 161.050781 L 223.367188 163.742188 L 225.097656 161.027344 C 226.226562 159.253906 227.328125 157.46875 228.445312 155.6875 L 231.765625 150.328125 L 233.410156 147.636719 L 234.230469 146.296875 L 235.046875 144.957031 C 235.871094 143.59375 236.695312 142.230469 237.515625 140.863281 C 238.167969 140.863281 258.058594 140.789062 258.847656 140.773438 L 255.429688 146.199219 C 254.457031 147.75 253.46875 149.28125 252.488281 150.824219 L 249.535156 155.441406 L 237.714844 173.90625 L 237.097656 174.867188 L 237.714844 175.761719 L 247.964844 190.722656 L 258.234375 205.667969 L 263.371094 213.136719 L 268.523438 220.597656 C 271.957031 225.578125 275.402344 230.546875 278.859375 235.503906 C 278.953125 235.640625 279.070312 235.664062 279.210938 235.574219 C 279.351562 235.480469 279.375 235.363281 279.285156 235.222656 Z M 279.285156 235.214844 " fill-opacity="1" fill-rule="nonzero"/></g><g clip-path="url(#99862249f9)"><path fill="#ffffff" d="M 233.898438 205.5625 L 232.464844 202.714844 L 231.015625 199.882812 L 229.550781 197.054688 L 228.074219 194.238281 C 227.082031 192.359375 226.09375 190.484375 225.082031 188.621094 L 223.628906 185.925781 L 221.898438 188.644531 C 220.769531 190.414062 219.667969 192.203125 218.550781 193.984375 L 215.230469 199.34375 L 213.585938 202.035156 L 212.761719 203.375 L 211.949219 204.714844 C 211.125 206.078125 210.308594 207.441406 209.492188 208.804688 C 208.839844 208.804688 188.949219 208.882812 188.15625 208.898438 L 191.566406 203.472656 C 192.539062 201.925781 193.527344 200.386719 194.507812 198.847656 L 197.460938 194.226562 L 209.28125 175.761719 L 209.898438 174.804688 L 209.28125 173.910156 L 199.035156 158.980469 L 188.761719 144.066406 L 183.625 136.613281 L 178.46875 129.167969 C 175.039062 124.203125 171.59375 119.246094 168.136719 114.296875 C 168.042969 114.164062 167.929688 114.140625 167.792969 114.226562 C 167.652344 114.316406 167.625 114.433594 167.710938 114.574219 C 170.925781 119.6875 174.144531 124.796875 177.359375 129.902344 L 182.1875 137.558594 L 187.035156 145.207031 L 196.746094 160.492188 L 205.859375 174.804688 L 194.132812 192.03125 L 191.046875 196.558594 C 190.011719 198.0625 188.988281 199.578125 187.945312 201.082031 L 181.707031 210.09375 L 179.1875 213.738281 L 212.457031 213.960938 L 213.160156 212.699219 C 214.1875 210.863281 215.191406 209.015625 216.199219 207.175781 L 216.957031 205.789062 L 219.207031 201.628906 L 222.15625 196.070312 L 223.667969 193.199219 L 225.398438 195.816406 L 227.167969 198.464844 L 228.957031 201.101562 L 230.742188 203.734375 L 232.550781 206.351562 C 233.765625 208.097656 234.996094 209.828125 236.246094 211.550781 C 236.335938 211.675781 236.449219 211.695312 236.582031 211.617188 C 236.714844 211.539062 236.746094 211.429688 236.679688 211.292969 C 235.78125 209.375 234.855469 207.464844 233.898438 205.5625 Z M 233.898438 205.5625 " fill-opacity="1" fill-rule="nonzero"/></g></svg>